HIERARCHY
ROOT Hip
{
  OFFSET 0.000000 0.000000 0.000000
  CHANNELS 6 Xposition Yposition Zposition Zrotation Xrotation Yrotation
  JOINT RHip
  {
    OFFSET 0.000000 0.000000 0.000000
    CHANNELS 3 Xposition Yposition Zposition
    End Site
    {
      OFFSET 0.000000 0.100000 0.000000
    }
  }
  JOINT RKnee
  {
    OFFSET 0.000000 0.000000 0.000000
    CHANNELS 3 Xposition Yposition Zposition
    End Site
    {
      OFFSET 0.000000 0.100000 0.000000
    }
  }
  JOINT RFoot
  {
    OFFSET 0.000000 0.000000 0.000000
    CHANNELS 3 Xposition Yposition Zposition
    End Site
    {
      OFFSET 0.000000 0.100000 0.000000
    }
  }
  JOINT LHip
  {
    OFFSET 0.000000 0.000000 0.000000
    CHANNELS 3 Xposition Yposition Zposition
    End Site
    {
      OFFSET 0.000000 0.100000 0.000000
    }
  }
  JOINT LKnee
  {
    OFFSET 0.000000 0.000000 0.000000
    CHANNELS 3 Xposition Yposition Zposition
    End Site
    {
      OFFSET 0.000000 0.100000 0.000000
    }
  }
  JOINT LFoot
  {
    OFFSET 0.000000 0.000000 0.000000
    CHANNELS 3 Xposition Yposition Zposition
    End Site
    {
      OFFSET 0.000000 0.100000 0.000000
    }
  }
  JOINT Spine
  {
    OFFSET 0.000000 0.000000 0.000000
    CHANNELS 3 Xposition Yposition Zposition
    End Site
    {
      OFFSET 0.000000 0.100000 0.000000
    }
  }
  JOINT Thorax
  {
    OFFSET 0.000000 0.000000 0.000000
    CHANNELS 3 Xposition Yposition Zposition
    End Site
    {
      OFFSET 0.000000 0.100000 0.000000
    }
  }
  JOINT Nose
  {
    OFFSET 0.000000 0.000000 0.000000
    CHANNELS 3 Xposition Yposition Zposition
    End Site
    {
      OFFSET 0.000000 0.100000 0.000000
    }
  }
  JOINT Head
  {
    OFFSET 0.000000 0.000000 0.000000
    CHANNELS 3 Xposition Yposition Zposition
    End Site
    {
      OFFSET 0.000000 0.100000 0.000000
    }
  }
  JOINT LShoulder
  {
    OFFSET 0.000000 0.000000 0.000000
    CHANNELS 3 Xposition Yposition Zposition
    End Site
    {
      OFFSET 0.000000 0.100000 0.000000
    }
  }
  JOINT LElbow
  {
    OFFSET 0.000000 0.000000 0.000000
    CHANNELS 3 Xposition Yposition Zposition
    End Site
    {
      OFFSET 0.000000 0.100000 0.000000
    }
  }
  JOINT LWrist
  {
    OFFSET 0.000000 0.000000 0.000000
    CHANNELS 3 Xposition Yposition Zposition
    End Site
    {
      OFFSET 0.000000 0.100000 0.000000
    }
  }
  JOINT RShoulder
  {
    OFFSET 0.000000 0.000000 0.000000
    CHANNELS 3 Xposition Yposition Zposition
    End Site
    {
      OFFSET 0.000000 0.100000 0.000000
    }
  }
  JOINT RElbow
  {
    OFFSET 0.000000 0.000000 0.000000
    CHANNELS 3 Xposition Yposition Zposition
    End Site
    {
      OFFSET 0.000000 0.100000 0.000000
    }
  }
  JOINT RWrist
  {
    OFFSET 0.000000 0.000000 0.000000
    CHANNELS 3 Xposition Yposition Zposition
    End Site
    {
      OFFSET 0.000000 0.100000 0.000000
    }
  }
}
MOTION
Frames: 19
Frame Time: 0.033333
0.000003 1.092991 0.000264 0.000000 0.000000 0.000000 0.003802 -0.070526 0.138514 -0.605680 -0.226356 0.057299 0.377959 -0.098881 -0.006583 -0.003827 0.070362 -0.138951 -0.228169 -0.184786 -0.161821 -0.098338 -0.378498 0.291588 -0.229451 -0.271029 -0.196229 -0.413546 -0.357450 -0.212259 -0.003338 -0.014257 -0.306648 -0.270589 0.115087 -0.487945 -0.344855 -0.600950 -0.312691 0.070748 -0.210695 -0.461005 0.163956 -0.096990 -0.334793 -0.399072 -0.295818 -0.207577 -0.038188 -0.052336 -0.103811 -0.542545 -0.862766 -0.036559
0.000003 1.092993 0.000280 0.000000 0.000000 0.000000 -0.014103 -0.058151 0.146126 -0.626122 -0.220636 0.058345 0.421553 -0.027887 -0.011571 0.014081 0.057985 -0.146596 -0.327954 -0.217896 -0.205869 -0.281756 -0.320850 0.237445 -0.207505 -0.275607 -0.184871 -0.422418 -0.323632 -0.192264 -0.046384 0.047778 -0.249030 -0.294471 0.157129 -0.402981 -0.337315 -0.589243 -0.312553 0.013101 -0.190462 -0.462544 0.053060 -0.028569 -0.299077 -0.407438 -0.248217 -0.165355 -0.097335 -0.120529 -0.060990 -0.589355 -0.800072 -0.057162
0.000002 1.092990 0.000267 0.000000 0.000000 0.000000 -0.020362 -0.041528 0.142095 -0.568072 -0.190790 0.095455 0.485621 0.067161 -0.029161 0.020344 0.041366 -0.142538 -0.415310 -0.168724 -0.177661 -0.507028 -0.149399 0.212709 -0.158551 -0.259428 -0.159369 -0.368738 -0.266596 -0.162380 -0.103913 0.098868 -0.178244 -0.274910 0.188997 -0.299286 -0.289223 -0.536585 -0.293302 -0.104496 -0.173779 -0.401509 -0.131606 0.030825 -0.232957 -0.351844 -0.166807 -0.108404 -0.155407 -0.177163 0.002076 -0.533700 -0.635357 -0.065123
0.000002 1.092986 0.000245 0.000000 0.000000 0.000000 0.001827 -0.033877 0.133387 -0.498105 -0.163977 0.177748 0.556805 0.105245 -0.025202 -0.001842 0.033719 -0.133785 -0.467328 -0.081670 -0.096968 -0.685021 0.029950 0.264524 -0.126053 -0.222686 -0.132639 -0.294966 -0.202083 -0.132267 -0.142132 0.113554 -0.142609 -0.207627 0.185322 -0.246051 -0.245954 -0.457165 -0.256543 -0.226385 -0.200151 -0.297107 -0.279673 0.029106 -0.180337 -0.277255 -0.079530 -0.067526 -0.224917 -0.134898 0.047510 -0.376044 -0.442338 -0.048154
0.000002 1.092984 0.000246 0.000000 0.000000 0.000000 0.047057 -0.041810 0.127333 -0.475718 -0.175434 0.276199 0.616187 0.092162 0.042950 -0.047073 0.041656 -0.127727 -0.501954 -0.035544 -0.021700 -0.745740 0.138162 0.322127 -0.115566 -0.187731 -0.120698 -0.252959 -0.165380 -0.121220 -0.146633 0.062764 -0.157714 -0.144281 0.127967 -0.250400 -0.237361 -0.385929 -0.230036 -0.325394 -0.265206 -0.210113 -0.316993 -0.027032 -0.164779 -0.231304 -0.034775 -0.056900 -0.321753 -0.029951 0.047990 -0.194110 -0.302629 -0.028136
0.000001 1.092984 0.000253 0.000000 0.000000 0.000000 0.116691 -0.063044 0.118591 -0.476215 -0.215870 0.378789 0.653150 0.082073 0.182617 -0.116711 0.062886 -0.118996 -0.516901 -0.024004 0.042218 -0.613571 0.187207 0.316767 -0.088305 -0.163451 -0.126172 -0.197741 -0.162939 -0.136342 -0.110114 -0.073796 -0.205032 -0.101851 0.033065 -0.271263 -0.220638 -0.321923 -0.232045 -0.395533 -0.338723 -0.157105 -0.242381 -0.120501 -0.161258 -0.151933 -0.045778 -0.064461 -0.357222 0.049881 0.004027 0.026261 -0.230556 -0.026290
0.000001 1.092990 0.000252 0.000000 0.000000 0.000000 0.212994 -0.098906 0.109756 -0.426252 -0.233212 0.480501 0.682480 0.091361 0.339910 -0.213018 0.098732 -0.110162 -0.479390 0.003768 0.140357 -0.339248 0.193621 0.292379 -0.029025 -0.148586 -0.138726 -0.064395 -0.173552 -0.147948 -0.051510 -0.277785 -0.237902 -0.061886 -0.051214 -0.269341 -0.145443 -0.274983 -0.250768 -0.391805 -0.432053 -0.153948 -0.079566 -0.212360 -0.180011 0.033612 -0.078461 -0.064695 -0.283227 0.050862 -0.029773 0.269813 -0.195055 -0.012450
0.000001 1.092999 0.000245 0.000000 0.000000 0.000000 0.289067 -0.142187 0.105589 -0.325218 -0.201727 0.528171 0.719198 0.083547 0.388535 -0.289098 0.141992 -0.105985 -0.388300 0.083748 0.264849 -0.030864 0.159125 0.305109 0.046568 -0.138876 -0.148574 0.121144 -0.189579 -0.136939 -0.018721 -0.491894 -0.242423 -0.013030 -0.099961 -0.247143 -0.018169 -0.275702 -0.270478 -0.286963 -0.524786 -0.208923 0.142109 -0.270651 -0.236327 0.271032 -0.103404 -0.052864 -0.181233 -0.058451 -0.024617 0.447908 -0.188206 0.021203
0.000002 1.093001 0.000216 0.000000 0.000000 0.000000 0.294478 -0.189073 0.100252 -0.230667 -0.143353 0.480265 0.737729 0.027801 0.266639 -0.294517 0.188871 -0.100589 -0.311028 0.204788 0.329485 0.213859 0.085675 0.314599 0.109588 -0.125806 -0.147842 0.258805 -0.196571 -0.106846 -0.051774 -0.628968 -0.239014 0.014993 -0.106818 -0.192741 0.101673 -0.310798 -0.276447 -0.134441 -0.542046 -0.290221 0.330684 -0.304566 -0.308709 0.427030 -0.109417 -0.030942 -0.128022 -0.220828 -0.024496 0.521531 -0.227158 0.039867
0.000002 1.092994 0.000156 0.000000 0.000000 0.000000 0.236476 -0.225443 0.088297 -0.140384 -0.090918 0.381539 0.730192 -0.036014 0.069640 -0.236526 0.225252 -0.088511 -0.298388 0.315378 0.307466 0.326865 0.014000 0.285927 0.147980 -0.110813 -0.133553 0.306450 -0.180909 -0.075774 -0.117174 -0.636988 -0.238904 0.033865 -0.087212 -0.110530 0.175027 -0.339875 -0.266270 -0.004164 -0.455053 -0.359039 0.393096 -0.328707 -0.346148 0.457208 -0.092011 -0.004380 -0.120723 -0.334902 -0.038955 0.566500 -0.269925 0.021595
0.000002 1.092985 0.000078 0.000000 0.000000 0.000000 0.154561 -0.228384 0.075981 -0.025997 -0.062411 0.284129 0.698968 -0.055053 -0.042659 -0.154616 0.228211 -0.076036 -0.324992 0.373632 0.247793 0.277678 -0.028149 0.265639 0.160144 -0.102331 -0.126186 0.297424 -0.160224 -0.083874 -0.169712 -0.549433 -0.259225 0.063891 -0.085984 -0.063246 0.204143 -0.348199 -0.271910 0.039048 -0.323542 -0.420081 0.322123 -0.339987 -0.351359 0.411052 -0.060224 -0.006658 -0.165486 -0.374681 -0.049793 0.588117 -0.259137 -0.028978
0.000002 1.092976 -0.000007 0.000000 0.000000 0.000000 0.070288 -0.190877 0.072250 0.060632 -0.043066 0.204759 0.634707 -0.020420 -0.039227 -0.070342 0.190723 -0.072143 -0.389632 0.365857 0.164937 0.073823 -0.052989 0.303217 0.139582 -0.097262 -0.130925 0.244826 -0.149243 -0.126987 -0.214652 -0.435273 -0.299553 0.055327 -0.097714 -0.091891 0.192305 -0.329161 -0.296352 -0.007440 -0.205429 -0.448516 0.187968 -0.347184 -0.330638 0.304004 -0.036866 -0.041569 -0.244234 -0.349788 -0.068137 0.580413 -0.175809 -0.095526
0.000002 1.092970 -0.000077 0.000000 0.000000 0.000000 -0.004113 -0.131858 0.074382 0.039236 -0.015983 0.160492 0.526042 0.037058 0.013545 0.004065 0.131722 -0.074149 -0.503776 0.320475 0.055052 -0.228697 -0.056455 0.360844 0.099515 -0.095895 -0.136613 0.154807 -0.142963 -0.158577 -0.267633 -0.346430 -0.326665 -0.030637 -0.087428 -0.155430 0.154439 -0.290897 -0.307442 -0.111318 -0.146920 -0.423688 0.052812 -0.373691 -0.289143 0.151646 -0.036214 -0.069330 -0.286522 -0.265002 -0.083472 0.583791 -0.041701 -0.148275
0.000002 1.092966 -0.000116 0.000000 0.000000 0.000000 -0.050536 -0.076560 0.075327 -0.069002 0.018705 0.161377 0.420288 0.108665 0.070872 0.050490 0.076435 -0.075022 -0.616846 0.285024 -0.038447 -0.529547 -0.028315 0.366805 0.068243 -0.101671 -0.141503 0.063455 -0.134641 -0.153340 -0.343503 -0.330159 -0.317877 -0.143361 -0.048380 -0.177805 0.108686 -0.263985 -0.293176 -0.207129 -0.185887 -0.384488 -0.063605 -0.448239 -0.258743 0.029503 -0.053270 -0.066207 -0.231709 -0.151827 -0.089267 0.604875 0.125540 -0.158355
0.000002 1.092965 -0.000111 0.000000 0.000000 0.000000 -0.053613 -0.038261 0.079438 -0.237595 0.049540 0.193181 0.373968 0.188972 0.099662 0.053562 0.038138 -0.079134 -0.680198 0.270663 -0.074911 -0.682217 0.013644 0.332685 0.057216 -0.106176 -0.150593 0.007668 -0.122179 -0.125790 -0.439570 -0.395022 -0.279832 -0.209203 0.019217 -0.133606 0.053116 -0.253837 -0.265090 -0.230533 -0.326281 -0.346574 -0.102021 -0.585920 -0.264902 0.008549 -0.072924 -0.041572 -0.058564 -0.074669 -0.094973 0.640474 0.276926 -0.124852
0.000003 1.092968 -0.000049 0.000000 0.000000 0.000000 -0.017334 -0.024012 0.089951 -0.410456 0.051543 0.233947 0.381216 0.250303 0.071999 0.017272 0.023882 -0.089754 -0.692206 0.262912 -0.063657 -0.561780 0.041747 0.306673 0.085406 -0.101502 -0.165593 0.028762 -0.104608 -0.093516 -0.491171 -0.507343 -0.226477 -0.189588 0.114830 -0.044037 0.016111 -0.250773 -0.237695 -0.171687 -0.501688 -0.317514 -0.014652 -0.759192 -0.283143 0.117222 -0.078682 -0.009389 0.212576 -0.071192 -0.109567 0.697762 0.350561 -0.080341
0.000004 1.092972 0.000052 0.000000 0.000000 0.000000 0.049568 -0.033226 0.105241 -0.528961 0.062851 0.276793 0.423384 0.266539 -0.002178 -0.049640 0.033087 -0.105235 -0.631683 0.269013 -0.021375 -0.219346 0.051416 0.298307 0.161582 -0.085806 -0.176644 0.135708 -0.081322 -0.064690 -0.418523 -0.586366 -0.168229 -0.107294 0.207729 0.030864 0.027877 -0.253563 -0.227220 -0.078514 -0.609263 -0.341908 0.128596 -0.900449 -0.302847 0.336944 -0.065158 0.020320 0.504127 -0.103956 -0.108529 0.741187 0.283170 -0.032236
0.000004 1.092975 0.000152 0.000000 0.000000 0.000000 0.127313 -0.056066 0.118932 -0.554947 0.108119 0.313310 0.521586 0.232647 -0.089486 -0.127391 0.055922 -0.119122 -0.487858 0.307227 0.049800 0.155246 0.033441 0.301986 0.235801 -0.075759 -0.177832 0.269681 -0.064732 -0.042338 -0.230982 -0.539785 -0.103557 -0.060152 0.274269 0.061478 0.073254 -0.268054 -0.226929 0.015302 -0.572083 -0.393981 0.248629 -0.933676 -0.332041 0.565911 -0.053859 0.030051 0.680064 -0.103798 -0.058558 0.760487 0.107037 0.046770
0.000003 1.092978 0.000232 0.000000 0.000000 0.000000 0.188114 -0.078862 0.125682 -0.520206 0.131135 0.343121 0.668076 0.121785 -0.136910 -0.188191 0.078713 -0.126041 -0.306732 0.345065 0.127241 0.406932 -0.036157 0.306008 0.246730 -0.091064 -0.174461 0.354734 -0.074738 -0.039027 -0.030526 -0.350364 -0.054773 -0.117014 0.301797 0.040177 0.131307 -0.288313 -0.227569 0.111894 -0.409461 -0.420260 0.358638 -0.856279 -0.350326 0.662375 -0.072912 0.007945 0.654093 -0.038389 0.024037 0.720507 -0.061376 0.136342
